<svg width="87" height="87" viewBox="0 0 87 87" fill="none" xmlns="http://www.w3.org/2000/svg">
<path d="M0 12.9372C0 5.79218 5.7857 0 12.9227 0H86.1512V73.3108C86.1512 80.4558 80.3662 86.248 73.2285 86.248H0V12.9372Z" fill="#3C78D8"/>
<path fill-rule="evenodd" clip-rule="evenodd" d="M43.498 20.1094C37.6395 25.8887 33.907 34.6019 33.8598 44.3376C33.8127 54.1179 37.4506 62.8753 43.2617 68.6992C41.5611 59.8969 43.12 50.2501 48.081 42.4703C49.3093 40.5144 50.7269 38.7362 52.2861 37.2247C50.9632 30.4232 47.8448 24.466 43.498 20.1094Z" fill="white"/>
<path fill-rule="evenodd" clip-rule="evenodd" d="M18.7094 30.3359C17.1087 39.036 18.4428 48.5276 23.1113 56.217C27.7355 63.9509 34.4049 68.2568 41.5634 68.6965C36.0499 62.9398 32.8931 54.2838 32.8931 44.6607C32.8931 42.2 33.1156 39.8271 33.5601 37.4982C29.2916 33.1043 24.0452 30.6434 18.7094 30.3359ZM67.4839 30.5554C48.6773 33.9392 41.6521 52.7897 44.3646 68.6965C63.2604 65.313 70.286 46.5501 67.4839 30.5554Z" fill="white"/>
</svg>
