<svg width="372" height="372" viewBox="0 0 372 372" fill="none" xmlns="http://www.w3.org/2000/svg">
<rect width="371.386" height="371.386" rx="185.693" fill="#4378CC" fill-opacity="0.2"/>
<g opacity="0.6" clip-path="url(#clip0_5441_97835)">
<mask id="mask0_5441_97835" style="mask-type:luminance" maskUnits="userSpaceOnUse" x="48" y="25" width="321" height="321">
<path d="M368.881 25.5234H48.5469V345.857H368.881V25.5234Z" fill="white"/>
</mask>
<g mask="url(#mask0_5441_97835)">
<path d="M192.058 168.657H62.25V52.5234H192.058V168.657Z" fill="#FAFAFA"/>
<path d="M192.061 168.659C192.061 168.659 192.039 167.915 192.028 166.504C192.021 165.079 192.009 162.995 191.994 160.281C191.977 154.829 191.951 146.86 191.918 136.708C191.882 116.417 191.83 87.4214 191.767 52.5263L192.061 52.8204C154.678 52.8354 110.063 52.8535 62.2647 52.8729H62.2535L62.6007 52.5263C62.5851 94.7772 62.5713 134.534 62.5588 168.659L62.2535 168.354C100.978 168.418 133.389 168.471 156.14 168.508C167.523 168.543 176.484 168.57 182.62 168.589C185.676 168.605 188.026 168.616 189.631 168.624C190.416 168.632 191.016 168.638 191.438 168.642C191.845 168.647 192.061 168.659 192.061 168.659C192.061 168.659 191.869 168.671 191.473 168.677C191.058 168.68 190.47 168.687 189.698 168.694C188.107 168.703 185.778 168.714 182.748 168.73C176.628 168.749 167.688 168.776 156.335 168.811C133.537 168.848 101.058 168.901 62.2535 168.965L61.9482 168.965V168.659C61.9357 134.534 61.9219 94.7772 61.9062 52.5263V52.1797H62.2535H62.2647C110.063 52.1991 154.678 52.2166 192.061 52.2316H192.356L192.355 52.5263C192.292 87.499 192.24 116.559 192.204 136.894C192.171 147.017 192.146 154.965 192.128 160.402C192.113 163.092 192.102 165.156 192.094 166.568C192.083 167.958 192.061 168.659 192.061 168.659Z" fill="#E2E2E2"/>
<path d="M112.026 73.1591C112.026 73.3506 105.194 73.507 96.7675 73.507C88.3381 73.507 81.5078 73.3506 81.5078 73.1591C81.5078 72.9677 88.3381 72.8125 96.7675 72.8125C105.194 72.8125 112.026 72.9677 112.026 73.1591Z" fill="#E2E2E2"/>
<path d="M167.031 81.8779C167.031 82.0699 148.26 82.2257 125.111 82.2257C101.954 82.2257 83.1875 82.0699 83.1875 81.8779C83.1875 81.6864 101.954 81.5312 125.111 81.5312C148.26 81.5312 167.031 81.6864 167.031 81.8779Z" fill="#E2E2E2"/>
<path d="M87.2026 102.117H81.7344V96.6484H87.2026V102.117Z" fill="#E2E2E2"/>
<path d="M100.664 102.117H95.1953V96.6484H100.664V102.117Z" fill="#E2E2E2"/>
<path d="M114.374 101.874H108.906V96.4062H114.374V101.874Z" fill="#E2E2E2"/>
<path d="M127.585 102.117H122.117V96.6484H127.585V102.117Z" fill="#E2E2E2"/>
<path d="M141.046 102.117H135.578V96.6484H141.046V102.117Z" fill="#E2E2E2"/>
<path d="M154.507 102.117H149.039V96.6484H154.507V102.117Z" fill="#E2E2E2"/>
<path d="M167.968 102.117H162.5V96.6484H167.968V102.117Z" fill="#ECECEC"/>
<path d="M87.2026 113.742H81.7344V108.273H87.2026V113.742Z" fill="#ECECEC"/>
<path d="M100.664 113.742H95.1953V108.273H100.664V113.742Z" fill="#E2E2E2"/>
<path d="M114.124 113.742H108.656V108.273H114.124V113.742Z" fill="#ECECEC"/>
<path d="M127.585 113.742H122.117V108.273H127.585V113.742Z" fill="#E2E2E2"/>
<path d="M141.046 113.742H135.578V108.273H141.046V113.742Z" fill="#E2E2E2"/>
<path d="M154.757 113.499H149.289V108.031H154.757V113.499Z" fill="#E2E2E2"/>
<path d="M167.968 113.742H162.5V108.273H167.968V113.742Z" fill="#E2E2E2"/>
<path d="M87.2026 125.374H81.7344V119.906H87.2026V125.374Z" fill="#E2E2E2"/>
<path d="M100.906 125.124H95.4375V119.656H100.906V125.124Z" fill="#E2E2E2"/>
<path d="M114.124 125.374H108.656V119.906H114.124V125.374Z" fill="#E2E2E2"/>
<path d="M127.585 125.374H122.117V119.906H127.585V125.374Z" fill="#ECECEC"/>
<path d="M141.046 125.374H135.578V119.906H141.046V125.374Z" fill="#E2E2E2"/>
<path d="M154.507 125.374H149.039V119.906H154.507V125.374Z" fill="#E2E2E2"/>
<path d="M167.968 125.374H162.5V119.906H167.968V125.374Z" fill="#E2E2E2"/>
<path d="M87.2026 136.999H81.7344V131.531H87.2026V136.999Z" fill="#E2E2E2"/>
<path d="M100.664 136.999H95.1953V131.531H100.664V136.999Z" fill="#E2E2E2"/>
<path d="M114.124 136.999H108.656V131.531H114.124V136.999Z" fill="#E2E2E2"/>
<path d="M127.835 136.749H122.367V131.281H127.835V136.749Z" fill="#E2E2E2"/>
<path d="M141.046 136.999H135.578V131.531H141.046V136.999Z" fill="#E2E2E2"/>
<path d="M154.507 136.999H149.039V131.531H154.507V136.999Z" fill="#ECECEC"/>
<path d="M167.968 136.999H162.5V131.531H167.968V136.999Z" fill="#E2E2E2"/>
<path d="M87.2026 148.624H81.7344V143.156H87.2026V148.624Z" fill="#E2E2E2"/>
<path d="M100.664 148.624H95.1953V143.156H100.664V148.624Z" fill="#ECECEC"/>
<path d="M114.124 148.624H108.656V143.156H114.124V148.624Z" fill="#E2E2E2"/>
<path d="M127.585 148.624H122.117V143.156H127.585V148.624Z" fill="#E2E2E2"/>
<path d="M141.046 148.624H135.578V143.156H141.046V148.624Z" fill="#E2E2E2"/>
<path d="M154.757 148.374H149.289V142.906H154.757V148.374Z" fill="#E2E2E2"/>
<path d="M167.968 148.624H162.5V143.156H167.968V148.624Z" fill="#E2E2E2"/>
<path d="M306.287 208.607C312.055 205.592 318.864 205.167 325.291 206.195C328.744 206.747 332.345 207.759 334.706 210.339C337.068 212.917 337.537 217.474 334.853 219.716C333.256 221.05 331.019 221.263 328.938 221.25C323.912 221.218 318.329 220.364 314.33 223.409C312.047 225.146 310.538 228.023 307.802 228.887C305.127 229.731 302.094 228.166 300.66 225.755C299.226 223.343 299.163 220.32 299.811 217.59C299.811 217.59 300.477 211.644 306.287 208.607Z" fill="#ECECEC"/>
<path d="M293.119 183.077C296.683 188.109 303.548 186.4 306.718 183.301C309.89 180.2 311.212 175.724 312.416 171.456C315.166 161.704 317.937 151.475 315.8 141.571C315.161 138.609 314.037 135.659 311.943 133.471C309.848 131.283 306.638 129.992 303.714 130.781C300.252 131.715 298.116 135.121 296.576 138.359C292.051 147.875 289.684 158.412 289.705 168.95C289.714 173.871 290.321 179.029 293.119 183.077Z" fill="#ECECEC"/>
<path d="M283.418 190.293C287.233 185.715 287.926 179.065 286.187 173.364C284.448 167.664 280.561 162.828 276.092 158.886C270.851 154.265 264.7 150.679 258.096 148.396C255.496 147.498 252.757 146.793 250.02 147.069C247.284 147.344 244.535 148.759 243.272 151.201C241.403 154.813 243.236 159.17 245.214 162.723C248.696 168.982 252.672 174.966 257.092 180.603C260.647 185.137 264.717 189.607 270.111 191.636C275.503 193.665 281.093 193.393 283.926 189.645" fill="#ECECEC"/>
<path d="M292.883 259.248C292.948 259.252 293.054 258.434 293.198 256.953C293.357 255.281 293.557 253.184 293.794 250.687C294.08 248.05 294.458 244.913 295.184 241.496C295.906 238.087 297.04 234.392 298.5 230.644C300.012 226.918 301.857 223.53 304.017 220.819C306.161 218.096 308.657 216.124 311.005 214.983C313.345 213.822 315.446 213.347 316.898 213.135C318.362 212.982 319.181 212.864 319.182 212.8C319.182 212.734 318.361 212.726 316.857 212.769C315.366 212.871 313.179 213.254 310.712 214.382C308.237 215.485 305.589 217.489 303.339 220.268C301.072 223.035 299.159 226.499 297.621 230.291C296.136 234.105 295.018 237.837 294.328 241.32C293.64 244.796 293.329 247.969 293.126 250.627C292.934 253.288 292.862 255.442 292.83 256.931C292.8 258.42 292.818 259.245 292.883 259.248Z" fill="#E2E2E2"/>
<path d="M293.312 254.427C293.345 254.425 293.363 254.058 293.37 253.361C293.367 252.561 293.362 251.553 293.356 250.316C293.343 247.672 293.336 243.847 293.468 239.124C293.682 229.677 294.473 219.508 296.013 205.171C297.472 191.69 299.436 176 301.521 165.797C301.968 163.477 302.419 161.389 302.844 159.56C303.248 157.728 303.594 156.148 303.928 154.869C304.214 153.666 304.448 152.685 304.633 151.907C304.784 151.227 304.848 150.866 304.817 150.857C304.785 150.848 304.66 151.191 304.449 151.856C304.218 152.623 303.928 153.589 303.571 154.776C303.182 156.043 302.783 157.613 302.328 159.438C301.854 161.259 301.356 163.342 300.866 165.659C298.801 174.904 296.621 187.824 295.065 202.195C293.522 216.561 292.841 229.642 292.798 239.113C292.752 243.848 292.861 247.681 292.987 250.325C293.065 251.563 293.13 252.569 293.18 253.369C293.235 254.065 293.279 254.428 293.312 254.427Z" fill="#E2E2E2"/>
<path d="M293.379 229.2C293.444 229.198 293.431 228.068 293.349 226.019C293.228 223.974 292.94 221.02 292.356 217.401C291.738 213.791 290.876 209.506 289.526 204.849C288.941 202.72 287.565 197.618 284.242 189.999C279.864 179.674 273.929 171.239 268.77 166.017C267.559 164.63 266.212 163.632 265.134 162.653C264.576 162.183 264.082 161.715 263.58 161.343C263.076 160.997 262.607 160.675 262.171 160.376C260.474 159.221 259.524 158.612 259.489 158.667C259.337 158.874 263.29 161.188 268.286 166.481C273.262 171.761 279.031 180.14 283.374 190.377C285.795 195.93 287.487 200.884 288.687 205.09C290.074 209.701 290.998 213.943 291.698 217.517C292.362 221.1 292.748 224.025 292.982 226.05C293.175 228.079 293.314 229.203 293.379 229.2Z" fill="#E2E2E2"/>
<path d="M268.992 273.703L271.519 308.332H316.005L318.533 273.703H268.992Z" fill="#E2E2E2"/>
<path d="M264.695 273.704H323.839V260.055H264.695V273.704Z" fill="#E2E2E2"/>
<path d="M264.695 307V310.784H267.474H322.863V307H264.695Z" fill="#ECECEC"/>
<path d="M270.201 317.441L267.477 310.781H320.747L317.568 317.441H270.201Z" fill="#E2E2E2"/>
<path d="M317.707 285.013C317.717 285.021 317.646 285.129 317.499 285.331C317.323 285.565 317.104 285.856 316.834 286.213C316.203 287.021 315.335 288.132 314.243 289.529L314.128 289.676L314.017 289.522C312.387 287.269 310.212 284.26 307.649 280.717H308.016C306.121 283.398 304.012 286.385 301.748 289.592L301.551 289.87L301.331 289.609C299.018 286.856 296.505 283.867 293.897 280.764L294.326 280.758C294.197 280.92 294.057 281.096 293.917 281.272C291.611 284.163 289.38 286.96 287.27 289.606L287.048 289.884L286.844 289.594C284.587 286.401 282.478 283.418 280.572 280.721L280.936 280.738C277.846 284.26 275.226 287.246 273.213 289.538L273.076 289.694L272.972 289.518C271.953 287.808 271.142 286.444 270.553 285.455C270.3 285.015 270.096 284.658 269.933 284.374C269.797 284.126 269.732 283.995 269.744 283.987C269.755 283.981 269.843 284.098 270.003 284.331C270.183 284.604 270.409 284.948 270.689 285.371C271.307 286.342 272.159 287.682 273.228 289.361L272.986 289.341C274.966 287.021 277.545 283.999 280.585 280.434L280.778 280.209L280.951 280.452C282.874 283.137 285.002 286.107 287.278 289.285L286.853 289.274C288.957 286.624 291.183 283.822 293.483 280.928C293.624 280.751 293.764 280.576 293.892 280.414L294.104 280.148L294.321 280.409C296.923 283.518 299.428 286.513 301.735 289.27L301.319 289.287C303.606 286.096 305.737 283.124 307.649 280.456L307.835 280.197L308.016 280.456C310.524 284.037 312.654 287.08 314.248 289.357L314.022 289.351C315.158 287.988 316.06 286.906 316.718 286.118C317.01 285.78 317.248 285.505 317.44 285.283C317.606 285.097 317.696 285.005 317.707 285.013Z" fill="#F5F5F5"/>
<path d="M319.157 273.472C319.157 273.625 308.01 273.748 294.263 273.748C280.511 273.748 269.367 273.625 269.367 273.472C269.367 273.319 280.511 273.195 294.263 273.195C308.01 273.195 319.157 273.319 319.157 273.472Z" fill="#F5F5F5"/>
<path d="M321.399 311.159C321.399 311.312 309.285 311.436 294.345 311.436C279.4 311.436 267.289 311.312 267.289 311.159C267.289 311.007 279.4 310.883 294.345 310.883C309.285 310.883 321.399 311.007 321.399 311.159Z" fill="#F5F5F5"/>
<path d="M160.961 179.758L155.957 182.443L144.88 190.97C144.88 190.97 110.952 195.476 109.649 196.453C108.345 197.431 91.4721 205.443 89.1916 216.193C86.9111 226.944 82.2188 297.092 82.2188 297.092L88.3752 317.818L211.947 318.011L240.927 317.598C240.927 317.598 252.063 291.591 252.063 284.424C252.063 277.256 248.805 223.502 248.805 223.502L214.053 198.998L160.961 179.758Z" fill="#FBFBFB"/>
<path d="M144.561 190.469C144.569 190.477 144.51 190.576 144.388 190.759C144.243 190.971 144.064 191.234 143.844 191.552C143.357 192.228 142.697 193.24 141.925 194.511C141.552 195.155 141.123 195.85 140.732 196.633C140.31 197.4 139.911 198.245 139.498 199.137C138.694 200.933 137.916 202.954 137.252 205.126C135.942 209.48 135.268 213.555 134.816 216.5C134.609 217.942 134.439 219.126 134.314 219.998C134.257 220.382 134.21 220.696 134.172 220.95C134.136 221.166 134.112 221.28 134.1 221.279C134.09 221.277 134.092 221.162 134.107 220.943C134.128 220.687 134.155 220.37 134.188 219.984C134.263 219.152 134.396 217.95 134.588 216.469C134.982 213.51 135.621 209.412 136.94 205.031C137.609 202.846 138.4 200.813 139.225 199.013C139.649 198.118 140.059 197.271 140.494 196.505C140.898 195.723 141.341 195.031 141.728 194.391C142.53 193.128 143.221 192.131 143.742 191.477C143.981 191.172 144.178 190.923 144.336 190.72C144.475 190.549 144.551 190.462 144.561 190.469Z" fill="#25393F"/>
<g opacity="0.4">
<path d="M145.333 211.087C145.126 210.427 144.86 209.681 144.219 209.423C143.715 209.221 143.917 209.545 143.414 209.753C138.721 211.688 136.456 216.028 134.469 220.915L134.582 220.799C134.287 221.548 134.596 222.628 135.35 223.067C136.408 223.684 137.768 223.351 138.855 222.788C139.943 222.225 140.939 221.443 142.125 221.139C144.694 220.482 147.249 222.241 149.063 224.177C150.876 226.114 152.509 228.419 154.983 229.379C150.688 223.937 147.399 217.704 145.333 211.087Z" fill="black"/>
</g>
<path d="M134.102 221.28C134.102 221.28 134.66 219.787 136.087 217.3C136.809 216.064 137.755 214.579 139.067 213.018C139.737 212.25 140.492 211.456 141.405 210.736C142.323 210.036 143.416 209.388 144.708 209.15L144.805 209.133L144.842 209.227C145.628 211.274 146.453 213.509 147.405 215.862C148.361 218.211 149.459 220.68 150.903 223.106C152.337 225.534 154.125 227.906 156.283 230.061C158.436 232.221 160.94 234.161 163.652 235.904C164.556 236.439 165.435 237.006 166.34 237.507C167.252 237.993 168.157 238.474 169.051 238.951L168.889 238.961C170.424 237.902 171.93 236.862 173.406 235.844C174.143 235.335 174.873 234.831 175.594 234.334C176.32 233.842 177.028 233.346 177.696 232.82C180.38 230.726 182.703 228.455 184.706 226.231L184.716 226.22L184.727 226.212C187.51 224.073 189.669 221.624 191.154 219.198C192.67 216.785 193.539 214.431 194.051 212.461C194.559 210.484 194.72 208.881 194.788 207.791C194.826 207.247 194.816 206.827 194.831 206.545C194.84 206.263 194.855 206.117 194.855 206.117C194.855 206.117 194.868 206.262 194.873 206.545C194.872 206.827 194.896 207.248 194.871 207.796C194.83 208.889 194.694 210.504 194.205 212.501C193.714 214.49 192.858 216.871 191.345 219.316C189.863 221.773 187.697 224.26 184.894 226.431L184.914 226.412C182.904 228.662 180.586 230.944 177.884 233.062C177.21 233.596 176.499 234.095 175.776 234.588C175.055 235.087 174.325 235.593 173.588 236.103C172.112 237.124 170.604 238.167 169.069 239.23L168.99 239.284L168.907 239.24C168.008 238.762 167.098 238.278 166.181 237.79C165.271 237.287 164.387 236.718 163.478 236.179C160.748 234.426 158.225 232.469 156.056 230.287C153.882 228.109 152.082 225.71 150.641 223.26C149.193 220.812 148.097 218.324 147.149 215.966C146.203 213.602 145.39 211.363 144.616 209.313L144.748 209.389C143.513 209.608 142.444 210.228 141.538 210.908C140.636 211.609 139.883 212.388 139.213 213.143C137.899 214.679 136.94 216.147 136.203 217.368C135.47 218.594 134.959 219.581 134.62 220.253C134.459 220.58 134.333 220.834 134.24 221.021C134.154 221.194 134.107 221.282 134.102 221.28Z" fill="#25393F"/>
<path d="M204.026 205.875C204.026 205.875 204.235 209.526 203.575 215.417C203.245 218.359 202.65 221.849 201.666 225.657C200.689 229.466 199.296 233.579 197.524 237.781L197.287 238.346L197.213 237.734C197.169 237.368 197.134 236.972 197.075 236.577C196.764 234.266 196.219 232.044 195.498 229.968C195.138 228.929 194.733 227.926 194.293 226.964C194.075 226.483 193.844 226.013 193.608 225.552C193.367 225.093 193.143 224.636 192.843 224.247C192.549 223.858 192.19 223.51 191.769 223.351C191.347 223.189 190.883 223.295 190.537 223.583C190.186 223.866 189.895 224.252 189.583 224.597C189.275 224.947 188.973 225.293 188.675 225.633C187.487 226.989 186.379 228.254 185.366 229.41C183.347 231.698 181.708 233.556 180.555 234.863C179.994 235.488 179.553 235.98 179.235 236.335C179.092 236.489 178.977 236.613 178.885 236.712C178.805 236.796 178.763 236.837 178.758 236.833C178.754 236.83 178.789 236.781 178.86 236.69C178.945 236.586 179.052 236.455 179.185 236.291C179.493 235.927 179.919 235.422 180.46 234.779C181.594 233.457 183.206 231.576 185.192 229.258C186.196 228.094 187.294 226.821 188.472 225.456C188.767 225.114 189.067 224.767 189.372 224.414C189.684 224.068 189.962 223.685 190.36 223.358C190.744 223.024 191.356 222.871 191.869 223.075C192.38 223.267 192.766 223.654 193.082 224.066C193.405 224.481 193.637 224.954 193.879 225.412C194.119 225.876 194.354 226.349 194.577 226.834C195.023 227.804 195.434 228.815 195.8 229.862C196.532 231.957 197.084 234.2 197.398 236.534C197.458 236.932 197.493 237.332 197.537 237.702L197.225 237.654C198.992 233.467 200.389 229.373 201.379 225.582C202.375 221.793 202.992 218.32 203.349 215.39C203.712 212.459 203.857 210.076 203.923 208.431C203.965 207.608 203.965 206.969 203.986 206.536C203.994 206.334 204.002 206.172 204.008 206.043C204.014 205.932 204.021 205.875 204.026 205.875Z" fill="#25393F"/>
<path d="M157.368 188.586C157.372 188.59 157.34 188.632 157.274 188.71C157.194 188.8 157.095 188.912 156.974 189.048C156.695 189.331 156.338 189.794 155.875 190.387C154.983 191.597 153.855 193.48 152.877 195.988C151.877 198.484 151.043 201.604 150.63 205.136C150.241 208.665 150.283 212.621 151.13 216.637C151.53 218.65 152.145 220.564 152.88 222.35C153.59 224.15 154.509 225.781 155.451 227.284C157.392 230.264 159.644 232.587 161.71 234.303C162.719 235.196 163.745 235.859 164.603 236.497C165.514 237.058 166.281 237.571 166.936 237.944C167.578 238.297 168.086 238.575 168.457 238.78C168.616 238.871 168.744 238.944 168.85 239.005C168.937 239.058 168.981 239.088 168.978 239.093C168.976 239.097 168.928 239.078 168.835 239.035C168.726 238.983 168.592 238.918 168.427 238.838C168.049 238.647 167.529 238.385 166.874 238.053C166.207 237.697 165.427 237.198 164.502 236.648C163.631 236.021 162.59 235.368 161.563 234.481C159.465 232.777 157.173 230.448 155.199 227.447C154.241 225.933 153.306 224.288 152.584 222.471C151.839 220.669 151.215 218.736 150.811 216.704C149.957 212.65 149.924 208.657 150.332 205.102C150.764 201.544 151.628 198.405 152.662 195.902C153.675 193.386 154.843 191.506 155.773 190.311C156.255 189.724 156.631 189.273 156.926 189.003C157.057 188.875 157.163 188.771 157.25 188.686C157.324 188.616 157.364 188.582 157.368 188.586Z" fill="#25393F"/>
<path d="M104.129 248.7C104.136 248.696 104.176 248.755 104.252 248.88C104.341 249.034 104.45 249.222 104.587 249.459L104.496 249.491C104.049 247.391 102.834 240.944 101.455 233.32C100.624 228.624 99.8729 224.375 99.3192 221.244C99.0664 219.73 98.8593 218.489 98.7073 217.579C98.6472 217.174 98.5984 216.843 98.5584 216.579C98.5277 216.35 98.5164 216.228 98.5277 216.227C98.5383 216.225 98.5715 216.342 98.6234 216.568C98.6785 216.829 98.7473 217.156 98.8324 217.556C99.0095 218.462 99.2516 219.697 99.5456 221.204C100.124 224.33 100.908 228.573 101.775 233.262C103.154 240.885 104.276 247.35 104.593 249.474L104.64 249.793L104.501 249.506C104.381 249.26 104.285 249.064 104.207 248.904C104.146 248.77 104.121 248.705 104.129 248.7Z" fill="#25393F"/>
<path d="M102.629 247.417C102.548 247.456 100.972 244.285 99.1101 240.338C97.2481 236.388 95.8048 233.156 95.8861 233.118C95.9674 233.079 97.5428 236.248 99.4054 240.199C101.267 244.147 102.711 247.379 102.629 247.417Z" fill="#25393F"/>
<g opacity="0.4">
<path d="M101.984 316.203C105.907 318.175 114.998 314.695 118.304 310.358C121.61 306.022 122.566 300.385 123.284 294.979C124.365 286.833 125.137 278.646 125.597 270.441C132.327 275.368 140.762 277.915 149.093 277.537C154.401 277.296 160.45 275.188 162.091 270.135C163.715 265.137 160.219 259.998 156.586 256.2C153.129 252.584 149.352 249.272 145.316 246.317C142.666 244.375 139.766 242.535 136.5 242.179C132.978 241.794 129.414 243.237 126.736 245.558C124.059 247.878 122.188 251.006 120.817 254.273C116.632 264.249 116.857 275.419 116.003 286.203C115.149 296.986 114.005 308.157 104.451 315.177" fill="black"/>
</g>
<path d="M102.242 316.245C102.24 316.237 102.332 316.193 102.511 316.114C102.71 316.028 102.972 315.916 103.3 315.774C103.955 315.406 104.924 314.867 105.977 313.933C108.111 312.118 110.742 309.026 113.206 304.922L113.189 304.975C113.761 300.687 114.429 295.687 115.139 290.366C116.286 281.933 117.302 274.297 118.119 268.781C118.626 266.059 119.037 263.848 119.327 262.288C119.472 261.542 119.587 260.953 119.67 260.524C119.71 260.34 119.742 260.189 119.769 260.068C119.792 259.965 119.807 259.913 119.812 259.914C119.818 259.915 119.814 259.969 119.801 260.074C119.784 260.197 119.762 260.348 119.735 260.536C119.667 260.966 119.572 261.56 119.451 262.309C119.186 263.873 118.81 266.089 118.347 268.816C117.606 274.365 116.587 281.989 115.461 290.412C114.736 295.73 114.056 300.728 113.472 305.013L113.468 305.042L113.454 305.066C110.946 309.187 108.273 312.266 106.086 314.063C105.008 314.985 104.012 315.51 103.338 315.855C102.985 315.996 102.71 316.09 102.526 316.157C102.341 316.222 102.245 316.252 102.242 316.245Z" fill="#25393F"/>
<path d="M162.461 317.603C162.455 317.604 162.435 317.538 162.402 317.406C162.366 317.256 162.32 317.064 162.263 316.819C162.154 316.301 161.946 315.545 161.78 314.551C161.41 312.572 161.028 309.672 160.919 306.069C160.815 302.468 160.988 298.167 161.593 293.442C162.169 288.712 163.127 283.563 164.238 278.186C165.306 272.796 166.651 267.73 167.739 263.106C168.844 258.483 169.555 254.253 169.745 250.667C169.932 247.081 169.707 244.171 169.434 242.182C169.327 241.182 169.156 240.42 169.086 239.895C169.048 239.647 169.018 239.45 168.995 239.299C168.977 239.164 168.97 239.095 168.976 239.094C168.981 239.093 168.999 239.159 169.028 239.292C169.059 239.442 169.1 239.637 169.15 239.882C169.241 240.404 169.433 241.165 169.56 242.164C169.872 244.153 170.134 247.074 169.976 250.679C169.814 254.283 169.122 258.54 168.031 263.173C166.957 267.812 165.624 272.867 164.558 278.252C163.447 283.625 162.481 288.764 161.891 293.479C161.272 298.19 161.076 302.474 161.149 306.064C161.229 309.654 161.574 312.548 161.905 314.53C162.051 315.524 162.239 316.283 162.326 316.805C162.371 317.052 162.407 317.248 162.435 317.398C162.457 317.532 162.467 317.602 162.461 317.603Z" fill="#25393F"/>
<path d="M172.988 247.056C172.91 247.004 173.989 245.283 175.188 243.087C176.393 240.893 177.262 239.056 177.349 239.094C177.388 239.112 177.222 239.595 176.896 240.353C176.57 241.11 176.078 242.139 175.474 243.243C174.869 244.347 174.267 245.315 173.804 245.998C173.342 246.68 173.025 247.08 172.988 247.056Z" fill="#25393F"/>
<g opacity="0.4">
<path d="M175.009 244.455C178.271 240.64 181.807 237.058 185.58 233.747C186.612 232.841 187.734 231.922 189.089 231.696C190.742 231.422 192.423 232.274 193.569 233.498C194.715 234.721 195.428 236.278 196.12 237.805C197.758 233.772 196.057 229.232 194.369 225.22C193.819 223.914 192.866 222.364 191.465 222.574C190.717 222.686 190.156 223.293 189.663 223.866C184.243 230.157 179.228 236.795 174.656 243.727" fill="black"/>
</g>
<g opacity="0.4">
<path d="M230.017 214.655L230.251 212.672C227.869 212.9 224.939 213.18 223.036 214.631C220.815 216.323 219.941 219.208 219.192 221.898C217.491 228.021 222.317 259.523 222.071 265.872C224.184 264.976 225.668 251.456 226.047 249.192C226.972 243.679 225.102 240.237 225.668 238.702C226.234 237.166 226.22 235.489 226.266 233.854C226.472 226.545 227.198 221.4 230.017 214.655Z" fill="black"/>
</g>
<path d="M199.24 113.631C196.223 109.866 197.234 103.872 200.712 100.528C204.189 97.1839 209.465 96.2353 214.219 97.0501C221.102 98.2296 227.286 102.927 230.268 109.242C231.879 112.654 232.75 116.684 235.721 119.012C238.333 121.058 241.93 121.249 244.905 122.717C248.892 124.685 251.454 128.875 252.354 133.23C253.254 137.585 252.691 142.111 251.755 146.459C250.897 150.449 249.756 154.76 251.459 158.468C253.12 162.085 257.02 164.065 259.582 167.111C264.402 172.841 263.274 182.562 257.27 187.035C255.355 188.461 252.937 189.542 252.018 191.746C251.178 193.757 251.881 196.045 251.831 198.224C251.703 203.834 245.503 208.43 240.097 206.92C237.368 206.158 234.858 204.134 232.05 204.51C229.261 204.883 227.391 207.453 225.12 209.115C220.653 212.384 213.827 211.858 209.913 207.943C208.275 206.304 206.962 204.075 204.724 203.473C202.49 202.874 200.134 204.15 197.844 203.83C194.846 203.411 192.884 200.427 192.008 197.529C191.132 194.632 190.904 191.494 189.415 188.858C187.466 185.407 183.74 183.444 180.612 181.01C173.708 175.637 169.293 167.189 168.826 158.453C168.358 149.718 171.845 140.846 178.135 134.766" fill="#25393F"/>
<path d="M157.036 188.553C151.03 195.399 148.638 205.25 150.838 214.088C153.037 222.925 160.383 235.854 168.898 239.084C174.441 235.048 181.566 229.41 186.736 224.908C190.082 221.995 191.865 217.727 193.532 213.614C194.493 211.243 195.47 208.679 194.879 206.188C194.445 204.354 193.208 202.822 191.906 201.46C183.545 192.708 170.774 188.403 158.822 190.307" fill="#FFA37D"/>
<path d="M182.56 125.073C185.751 118.652 193.001 115.343 199.943 117.136L221.272 122.645C231.928 126.118 240.227 142.65 233.892 157.091C228.89 168.494 223.756 182.826 218.628 190.69C208.316 206.503 194.301 202.837 194.301 202.837L186.676 219.702L155.818 190.578L182.56 125.073Z" fill="#FFA37D"/>
<path d="M218.475 161.579C218.879 161.429 219.918 163.429 222.233 164.551C224.53 165.705 226.808 165.344 226.921 165.75C226.983 165.936 226.465 166.309 225.463 166.486C224.474 166.667 222.98 166.582 221.542 165.873C220.106 165.162 219.153 164.04 218.721 163.158C218.277 162.265 218.282 161.641 218.475 161.579Z" fill="#25393F"/>
<path d="M194.338 150.573C194.793 150.491 195.82 152.714 198.306 154.263C200.773 155.842 203.312 155.87 203.411 156.304C203.468 156.504 202.875 156.797 201.754 156.802C200.65 156.815 199.004 156.468 197.46 155.493C195.916 154.517 194.934 153.205 194.511 152.229C194.077 151.24 194.122 150.602 194.338 150.573Z" fill="#25393F"/>
<path d="M204.507 174.06C204.556 173.922 206.129 174.323 208.63 175.078C209.257 175.284 209.879 175.419 210.163 175.054C210.497 174.684 210.536 173.925 210.557 173.097C210.642 171.393 210.732 169.609 210.824 167.737C211.268 160.132 211.875 153.988 212.181 154.009C212.487 154.029 212.377 160.21 211.933 167.814C211.808 169.682 211.693 171.464 211.578 173.168C211.501 173.952 211.545 174.899 210.837 175.662C210.475 176.038 209.889 176.166 209.459 176.098C209.023 176.043 208.682 175.899 208.377 175.784C205.939 174.848 204.457 174.198 204.507 174.06Z" fill="#25393F"/>
<path d="M194.269 202.879C194.269 202.879 181.921 198.203 173.625 186.312C173.625 186.312 174.047 200.802 192.361 207.118L194.269 202.879Z" fill="#ED815D"/>
<path d="M196.303 142.509C196.698 141.878 199.14 142.743 202.167 143.021C205.19 143.36 207.756 143.007 208.016 143.705C208.127 144.036 207.574 144.589 206.47 145.045C205.374 145.502 203.716 145.803 201.903 145.62C200.089 145.433 198.527 144.803 197.546 144.134C196.556 143.465 196.127 142.81 196.303 142.509Z" fill="#25393F"/>
<path d="M223.556 149.525C224.348 149.523 225.315 151.471 226.995 153.34C228.618 155.258 230.424 156.49 230.306 157.264C230.232 157.623 229.574 157.773 228.539 157.462C227.512 157.162 226.144 156.339 225.008 155.037C223.874 153.735 223.251 152.275 223.1 151.227C222.942 150.167 223.187 149.545 223.556 149.525Z" fill="#25393F"/>
<path d="M199.113 180.6C199.113 180.6 200.568 179.846 199.903 177.057C199.238 174.267 195.7 171.73 193.448 174.015C193.448 174.015 191.18 174.183 192.063 176.8C192.947 179.416 198.1 183.123 199.071 181.024" fill="#ED815D"/>
<path d="M198.303 182.711C197.89 182.639 197.514 180.636 195.644 178.156C193.78 175.672 191.823 174.576 191.892 174.191C191.894 174.011 192.283 174.119 193.411 174.635C194.576 175.175 195.338 175.931 196.482 177.448C197.621 178.967 198.312 180.222 198.564 181.007C198.983 182.011 198.485 182.771 198.303 182.711Z" fill="#25393F"/>
<path d="M164.381 116.042C161.048 118.569 159.053 122.767 159.196 126.948C159.275 129.287 159.831 132.052 158.099 133.627C156.336 135.23 153.58 134.35 151.197 134.35C147.051 134.349 143.182 137.78 142.686 141.897C142.509 143.374 142.692 144.974 141.931 146.252C141.14 147.583 139.563 148.172 138.235 148.968C134.935 150.944 132.814 154.748 132.868 158.594C132.922 162.44 135.148 166.183 138.502 168.066C140.028 168.923 141.817 169.463 142.928 170.815C144.201 172.367 144.238 174.554 144.856 176.465C146.04 180.126 149.712 182.832 153.559 182.881C157.407 182.93 161.147 180.317 162.423 176.687" fill="#25393F"/>
<path d="M199.008 110.238C197.735 113.887 198.171 118.093 200.164 121.404C202.158 124.715 205.673 127.067 209.494 127.648C212.459 128.099 216.001 127.743 217.903 130.06C219.904 132.499 218.691 136.362 220.269 139.093C222.524 142.995 226.388 146.119 230.056 148.739C232.889 150.761 229.606 156.334 230.828 159.594C232.051 162.852 237.112 170.303 240.589 170.454C241.365 167.548 245.764 154.794 245.855 151.788C245.947 148.781 245.287 145.655 243.439 143.282C242.426 141.982 241.088 140.941 240.212 139.544C238.322 136.528 238.983 132.639 238.384 129.13C237.609 124.606 234.503 120.548 230.339 118.62C226.874 117.015 222.802 116.817 219.606 114.728C217.243 113.184 215.562 110.726 213.111 109.324C208.341 106.595 202.332 108.624 197.374 110.996" fill="#25393F"/>
<path d="M175.776 146.484C175.283 146.152 171.989 148.619 175.218 150.617C180.873 154.118 185.809 142.418 185.621 138.521C188.518 137.315 191.45 136.09 194.005 134.171C196.561 132.251 200.402 125.94 201.1 122.743C203.266 123.634 213.755 123.77 212.848 123.136C210.786 121.692 206.613 118.596 206.07 116.188C204.89 110.958 201.204 106.395 196.31 105.003C191.417 103.611 185.501 105.815 182.771 110.547C176.945 108.588 170.017 110.285 165.336 114.816C160.656 119.347 158.41 126.531 159.686 132.894C160.02 134.56 160.573 136.301 160.031 137.948C159.359 139.989 157.302 141.081 155.662 142.396C151.192 145.981 149.241 152.348 149.758 158.108C150.275 163.869 151.245 166.164 154.083 168.26C159.637 172.361 150.913 182.611 161.274 186.181" fill="#25393F"/>
<path d="M253.037 186.643C253.009 186.6 253.404 186.388 254.018 185.82C254.619 185.254 255.491 184.339 256.124 182.888C256.77 181.471 257.218 179.487 256.74 177.31C256.263 175.128 254.629 173.042 252.434 171.26C250.304 169.408 247.502 167.752 245.529 164.848C243.531 161.93 243.221 157.971 243.876 154.221C244.524 150.414 246.131 146.721 247.17 142.78C247.693 140.812 248.025 138.763 247.969 136.682C247.912 134.614 247.462 132.502 246.364 130.706C245.273 128.909 243.584 127.563 241.73 126.649C239.87 125.727 237.859 125.182 235.859 124.827C233.854 124.481 231.802 124.281 229.856 123.642C227.921 123.053 226.075 121.766 225.205 119.937C224.305 118.144 224.118 116.243 223.729 114.522C223.385 112.784 222.739 111.213 221.731 109.915C219.755 107.284 216.815 105.815 214.092 105.288C211.326 104.771 208.728 105.297 206.667 106.142C204.595 107.01 203.013 108.182 201.84 109.244C199.513 111.423 198.735 113.078 198.644 113.009C198.632 113.002 198.678 112.901 198.781 112.709C198.889 112.523 199.029 112.229 199.27 111.88C199.72 111.163 200.467 110.146 201.621 109.013C202.782 107.894 204.37 106.655 206.488 105.72C208.593 104.808 211.287 104.212 214.194 104.717C217.05 105.233 220.145 106.727 222.272 109.503C223.354 110.859 224.075 112.591 224.434 114.367C224.838 116.128 225.051 117.98 225.878 119.591C226.672 121.218 228.267 122.335 230.102 122.897C231.937 123.494 233.945 123.689 235.997 124.035C238.05 124.394 240.133 124.949 242.095 125.917C244.046 126.875 245.878 128.321 247.066 130.28C248.259 132.233 248.728 134.494 248.784 136.661C248.842 138.841 248.488 140.976 247.948 142.984C246.872 147.005 245.264 150.666 244.622 154.35C243.968 157.989 244.255 161.74 246.097 164.475C247.917 167.223 250.665 168.915 252.811 170.818C255.018 172.656 256.728 174.881 257.189 177.214C257.649 179.526 257.125 181.577 256.413 183.023C255.712 184.504 254.774 185.408 254.125 185.945C253.464 186.483 253.037 186.643 253.037 186.643Z" fill="#41626C"/>
<path d="M234.052 148.767C234.124 148.797 233.741 149.661 233.351 151.299C232.976 152.927 232.625 155.381 233.092 158.344C233.32 159.818 233.751 161.411 234.485 163.001C235.192 164.614 236.28 166.11 237.524 167.709C238.126 168.521 238.737 169.39 239.18 170.402C239.634 171.404 239.855 172.576 239.752 173.725C239.556 176.05 238.402 178.109 237.538 180.209C236.634 182.289 236.122 184.518 236.928 186.457C237.681 188.393 239.221 189.873 240.619 191.286C242.039 192.696 243.41 194.115 244.271 195.77C244.68 196.6 244.961 197.48 245.047 198.345C245.098 199.209 245.061 200.048 244.848 200.808C244.057 203.907 241.881 205.665 240.342 206.364C239.541 206.701 238.878 206.844 238.427 206.881C237.974 206.907 237.74 206.906 237.738 206.878C237.721 206.779 238.707 206.818 240.203 206.077C241.633 205.326 243.622 203.577 244.283 200.676C244.618 199.25 244.489 197.598 243.669 196.084C242.848 194.567 241.523 193.218 240.087 191.824C238.681 190.421 237.043 188.914 236.177 186.744C235.753 185.671 235.611 184.449 235.778 183.275C235.934 182.097 236.332 180.976 236.78 179.895C237.675 177.744 238.775 175.74 238.951 173.661C239.183 171.57 238.087 169.736 236.915 168.158C235.713 166.583 234.563 164.959 233.863 163.278C233.127 161.613 232.715 159.954 232.518 158.427C232.111 155.359 232.565 152.85 233.042 151.217C233.284 150.396 233.524 149.774 233.722 149.37C233.913 148.962 234.026 148.756 234.052 148.767Z" fill="#41626C"/>
<path d="M140.068 167.902C140.056 167.915 139.936 167.826 139.712 167.637C139.484 167.453 139.175 167.145 138.809 166.71C138.092 165.841 137.156 164.376 136.754 162.254C136.346 160.186 136.522 157.322 138.327 154.833C140.062 152.389 143.332 150.368 147.152 150.571L146.803 151.028C146.114 149.06 145.597 146.853 145.785 144.514C145.932 142.197 147.053 139.727 149.165 138.249C150.192 137.494 151.485 137.017 152.832 137.016C154.196 137.03 155.448 137.562 156.606 138.106C157.768 138.649 158.903 139.262 160.102 139.474C161.292 139.693 162.522 139.363 163.416 138.511C164.754 137.271 165.365 135.42 165.492 133.601C165.649 131.761 165.479 129.887 165.681 128.016C166.083 124.265 167.9 120.917 170.341 118.559C172.784 116.158 175.911 114.873 178.832 114.491C181.774 114.11 184.547 114.582 186.782 115.533L186.428 115.671C187.426 113.635 189.161 112.385 190.755 111.743C192.37 111.082 193.901 110.995 195.093 111.119C196.297 111.252 197.169 111.622 197.726 111.899C198.267 112.215 198.527 112.409 198.515 112.427C198.475 112.535 197.413 111.618 195.066 111.418C193.913 111.345 192.446 111.473 190.923 112.141C189.416 112.791 187.814 114.011 186.927 115.904L186.815 116.141L186.571 116.042C184.407 115.165 181.737 114.75 178.923 115.148C176.124 115.549 173.169 116.797 170.863 119.094C168.556 121.355 166.846 124.555 166.479 128.099C166.29 129.868 166.463 131.733 166.306 133.67C166.171 135.589 165.527 137.678 163.969 139.118C162.929 140.129 161.348 140.554 159.964 140.281C158.574 140.027 157.404 139.372 156.259 138.84C155.122 138.3 153.977 137.829 152.825 137.818C151.676 137.815 150.544 138.216 149.62 138.889C147.714 140.218 146.684 142.413 146.526 144.579C146.333 146.759 146.802 148.883 147.453 150.801L147.62 151.292L147.104 151.258C143.576 151.029 140.449 152.883 138.779 155.162C137.043 157.472 136.809 160.18 137.146 162.185C137.474 164.238 138.323 165.692 138.974 166.581C139.64 167.474 140.105 167.862 140.068 167.902Z" fill="#41626C"/>
<path d="M198.729 114.951C198.769 115.095 197.512 114.884 195.902 116.032C194.297 117.155 192.898 119.886 192.473 123.358L192.436 123.656L192.142 123.63C189.189 123.37 185.448 124.5 182.907 127.431C182.295 128.159 181.755 129.012 181.414 129.917C181.087 130.847 180.92 131.88 180.757 132.941C180.589 134.002 180.438 135.106 180.097 136.215C179.802 137.316 179.083 138.463 178.108 139.159C176.023 140.769 173.471 141.036 171.24 141.379C168.964 141.674 166.828 142.04 164.981 142.963C161.252 144.746 158.788 147.862 157.7 150.763C156.571 153.693 156.599 156.326 156.807 158.058C157.021 159.811 157.387 160.738 157.309 160.762C157.282 160.772 157.18 160.547 157.01 160.105C156.857 159.66 156.642 158.994 156.492 158.105C156.182 156.35 156.055 153.637 157.157 150.559C158.221 147.509 160.747 144.196 164.652 142.283C166.586 141.289 168.872 140.884 171.126 140.582C173.357 140.24 175.779 139.939 177.602 138.513C179.395 137.263 179.601 134.896 179.96 132.815C180.13 131.751 180.304 130.68 180.673 129.647C181.075 128.61 181.654 127.724 182.327 126.934C185.098 123.806 189.068 122.688 192.198 123.025L191.868 123.296C192.386 119.682 193.925 116.886 195.707 115.756C196.576 115.187 197.382 114.995 197.911 114.946C198.451 114.919 198.728 114.921 198.729 114.951Z" fill="#41626C"/>
<path d="M176.991 148.328C178.787 144.838 176.404 140.435 172.479 140.431C170.325 140.429 168.003 141.589 166.065 145.276C160.898 155.108 171.835 158.268 172 157.995C172.102 157.826 174.889 152.415 176.991 148.328Z" fill="#FFA37D"/>
<path d="M170.958 152.688C170.931 152.634 170.723 152.718 170.364 152.699C170.013 152.68 169.481 152.514 169.069 152.052C168.231 151.125 168.224 149.016 169.108 147.219C169.553 146.311 170.188 145.557 170.876 145.019C171.554 144.457 172.283 144.199 172.855 144.381C173.439 144.534 173.645 145.042 173.62 145.382C173.607 145.726 173.441 145.89 173.484 145.934C173.499 145.972 173.782 145.88 173.916 145.432C173.978 145.216 173.985 144.923 173.853 144.613C173.718 144.297 173.423 144.017 173.038 143.865C172.252 143.518 171.202 143.858 170.446 144.449C169.647 145.022 168.912 145.857 168.412 146.877C167.434 148.892 167.474 151.279 168.68 152.436C169.276 152.98 169.963 153.075 170.383 152.999C170.815 152.917 170.983 152.724 170.958 152.688Z" fill="#ED815D"/>
<path d="M167.211 284.635C166.328 283.027 164.082 282.052 164.082 282.052L162.178 277.468C162.178 277.468 162.91 275.846 162.147 273.864C161.385 271.881 155.817 260.368 155.938 259.994L154.522 259.923C154.522 259.923 159.667 272.114 160.169 272.731C160.672 273.348 161.429 276.981 160.19 277.489C158.951 277.997 156.299 276.674 155.171 275.565C154.042 274.455 150.407 266.069 149.771 264.334C149.134 262.599 150.221 260.167 150.221 260.167L151.196 257.797L149.828 257.808C149.828 257.808 148.98 260.301 148.502 262.668C148.025 265.033 153.707 275.303 154.586 276.414C155.466 277.525 158.457 278.37 160.082 279.475C161.708 280.58 161.489 284.063 161.489 284.063C161.489 284.063 160.138 285.939 160.033 288.177C159.927 290.416 164.989 300.939 168.364 303.147C171.739 305.357 175.704 303.707 176.078 303.828C176.452 303.949 177.305 302.077 177.305 302.077C177.305 302.077 168.095 286.244 167.211 284.635ZM171.952 303.072C170.159 302.944 168.306 301.733 167.311 300.442C166.899 299.907 162.484 292.372 161.91 290.966C160.909 288.513 161.575 287.144 161.919 285.699C162.419 283.603 165.663 284.801 165.663 284.801C165.663 284.801 175.324 301.172 175.113 301.675C174.903 302.178 173.744 303.2 171.952 303.072Z" fill="#25393F"/>
<path d="M177.31 302.075C177.31 302.075 204.943 291.287 206.228 290.082C207.512 288.875 212.134 281.964 212.134 281.964C212.134 281.964 214.427 282.343 214.133 282.943C213.84 283.543 209.517 290.451 204.854 292.483C200.191 294.515 176.082 303.825 176.082 303.825L177.31 302.075Z" fill="#25393F"/>
<path d="M90.154 215.678L78.9434 281.567C78.9434 281.567 74.78 294.392 75.3896 297.194C75.9992 299.994 78.1613 312.079 84.5801 315.862C90.9989 319.645 103.682 317.123 106.277 314.512C108.871 311.901 113.985 307.115 114.578 304.911C115.172 302.707 119.277 269.209 119.277 269.209L120.917 259.81C120.917 259.81 114.717 261.833 110.905 259.242C107.093 256.651 102.052 245.456 102.052 245.456L96.4739 254.083L90.154 215.678Z" fill="white"/>
<path d="M101.086 245.461C101.096 245.467 101.02 245.595 100.869 245.833C100.697 246.096 100.473 246.438 100.195 246.864C99.6084 247.758 98.7642 249.053 97.7476 250.672C95.7039 253.903 92.9762 258.429 89.9953 263.445C87.0145 268.463 84.3256 273.013 82.3264 276.275C81.3287 277.908 80.5058 279.22 79.9249 280.119C79.6454 280.543 79.42 280.884 79.2469 281.147C79.0881 281.38 79.0009 281.499 78.9908 281.493C78.9814 281.487 79.0511 281.357 79.1911 281.112C79.351 280.841 79.5589 280.488 79.8177 280.052C80.3828 279.098 81.1675 277.776 82.129 276.157C84.0873 272.832 86.7612 268.293 89.7151 263.277C92.6972 258.26 95.4576 253.752 97.5539 250.549C98.5955 248.944 99.4711 247.665 100.09 246.792C100.39 246.381 100.63 246.049 100.815 245.795C100.984 245.57 101.077 245.454 101.086 245.461Z" fill="#25393F"/>
<path d="M118.541 267.891C118.549 267.899 118.468 267.994 118.306 268.165C118.138 268.332 117.912 268.601 117.573 268.898C116.915 269.508 115.886 270.339 114.423 271.042C113.687 271.375 112.847 271.691 111.902 271.846C110.965 272.02 109.93 272.073 108.864 271.93C107.799 271.795 106.698 271.514 105.62 271.065C104.547 270.609 103.486 270.032 102.467 269.327C101.468 268.596 100.583 267.766 99.811 266.894C99.0586 266.003 98.4168 265.076 97.8927 264.144C96.8493 262.273 96.2765 260.41 95.9806 258.827C95.6895 257.238 95.6678 255.926 95.7119 255.028C95.7267 254.578 95.785 254.232 95.8074 253.996C95.8361 253.762 95.8563 253.639 95.8676 253.64C95.8964 253.643 95.8586 254.139 95.8389 255.031C95.8336 255.924 95.891 257.221 96.2063 258.783C96.5278 260.339 97.1149 262.167 98.1543 263.997C98.6766 264.909 99.3114 265.814 100.052 266.685C100.813 267.537 101.679 268.347 102.656 269.061C103.65 269.75 104.695 270.321 105.743 270.77C106.795 271.213 107.867 271.492 108.901 271.632C109.937 271.78 110.941 271.738 111.855 271.58C112.777 271.442 113.6 271.145 114.327 270.832C115.772 270.171 116.811 269.379 117.489 268.802C118.164 268.218 118.519 267.871 118.541 267.891Z" fill="#25393F"/>
<path d="M101.455 245.493L109.962 239.945C109.962 239.945 132.68 230.547 134.989 229.998C137.3 229.449 139.962 228.365 141.217 229.958C142.474 231.551 155.523 240.899 155.523 240.899C155.523 240.899 163.267 255.264 163.28 257.221C163.292 259.178 165.444 261.67 163.313 262.388L161.182 263.107C161.182 263.107 160.492 266.602 157.826 267.009C155.159 267.416 154.267 267.031 154.267 267.031C154.267 267.031 154.111 270.524 151.975 270.321C149.838 270.119 146.26 267.083 146.26 267.083C146.26 267.083 144.67 268.906 143.424 268.914C142.178 268.922 138.247 266.279 138.247 266.279L130.636 259.743L123.955 257.472L120.365 259.786C120.365 259.786 112.671 260.491 111.511 259.87C110.351 259.25 101.455 245.493 101.455 245.493Z" fill="#FFA37D"/>
<path d="M145.334 267.706C145.313 267.713 145.171 267.353 144.935 266.699C144.82 266.371 144.677 265.972 144.479 265.519C144.286 265.066 144.092 264.538 143.812 263.983C143.551 263.421 143.261 262.806 142.902 262.171C142.571 261.521 142.154 260.862 141.729 260.161C140.841 258.786 139.777 257.328 138.527 255.909C137.264 254.501 135.941 253.271 134.679 252.226C134.032 251.723 133.428 251.231 132.82 250.826C132.232 250.395 131.656 250.036 131.128 249.71C130.61 249.367 130.109 249.112 129.681 248.867C129.255 248.618 128.875 248.427 128.563 248.275C127.941 247.964 127.601 247.781 127.61 247.76C127.619 247.74 127.976 247.884 128.617 248.161C128.939 248.295 129.329 248.47 129.766 248.706C130.205 248.937 130.717 249.179 131.246 249.511C131.786 249.827 132.374 250.179 132.974 250.604C133.594 251.003 134.21 251.491 134.867 251.993C136.152 253.034 137.494 254.269 138.771 255.691C140.033 257.126 141.101 258.604 141.985 260.001C142.406 260.714 142.818 261.383 143.141 262.045C143.492 262.691 143.772 263.315 144.023 263.888C144.29 264.453 144.471 264.991 144.649 265.454C144.831 265.916 144.96 266.323 145.055 266.659C145.255 267.328 145.356 267.7 145.334 267.706Z" fill="#ED815D"/>
<path d="M154.251 267.43C154.241 267.437 154.175 267.343 154.056 267.158C153.943 266.971 153.759 266.703 153.564 266.335C153.164 265.605 152.655 264.508 152.154 263.106C151.647 261.707 151.159 260.004 150.583 258.133C149.991 256.271 149.304 254.218 148.14 252.297C146.999 250.361 145.407 248.872 143.831 247.736C142.246 246.597 140.724 245.682 139.561 244.742C138.389 243.818 137.573 242.898 137.129 242.189C136.911 241.831 136.752 241.549 136.67 241.344C136.581 241.143 136.538 241.037 136.548 241.032C136.583 241.015 136.762 241.442 137.233 242.118C137.704 242.794 138.526 243.669 139.702 244.56C140.869 245.466 142.395 246.355 144.006 247.492C145.612 248.628 147.252 250.147 148.419 252.128C149.608 254.091 150.292 256.171 150.87 258.045C151.432 259.927 151.896 261.63 152.371 263.031C152.841 264.434 153.313 265.534 153.677 266.277C154.05 267.015 154.274 267.416 154.251 267.43Z" fill="#ED815D"/>
<path d="M160.649 263.262C160.638 263.264 160.605 263.158 160.551 262.953C160.492 262.712 160.42 262.415 160.332 262.055C160.245 261.663 160.133 261.187 159.967 260.641C159.807 260.096 159.654 259.465 159.409 258.792C159.185 258.112 158.936 257.369 158.612 256.592C158.321 255.802 157.933 254.99 157.544 254.129C156.715 252.43 155.697 250.612 154.468 248.81C153.219 247.018 151.882 245.421 150.589 244.042C149.922 243.372 149.301 242.721 148.666 242.168C148.055 241.588 147.45 241.091 146.894 240.64C146.351 240.172 145.817 239.805 145.363 239.462C144.912 239.113 144.507 238.838 144.172 238.618C143.867 238.408 143.615 238.235 143.411 238.095C143.238 237.971 143.151 237.902 143.157 237.892C143.162 237.883 143.261 237.933 143.445 238.038C143.659 238.166 143.922 238.322 144.241 238.512C144.588 238.716 145.006 238.977 145.469 239.313C145.934 239.644 146.482 240 147.037 240.46C147.605 240.902 148.224 241.392 148.847 241.968C149.495 242.515 150.128 243.164 150.805 243.834C152.121 245.212 153.477 246.818 154.736 248.625C155.977 250.443 156.994 252.281 157.815 254.001C158.2 254.872 158.582 255.694 158.863 256.494C159.179 257.281 159.417 258.033 159.63 258.722C159.861 259.405 160 260.043 160.143 260.595C160.293 261.148 160.388 261.631 160.456 262.028C160.52 262.394 160.572 262.695 160.616 262.94C160.648 263.15 160.66 263.26 160.649 263.262Z" fill="#ED815D"/>
<path d="M126.969 239.186C126.978 239.24 126.527 239.311 125.872 239.599C125.221 239.881 124.366 240.426 123.717 241.293C123.069 242.161 122.788 243.136 122.703 243.841C122.612 244.551 122.672 245.003 122.618 245.009C122.583 245.017 122.44 244.57 122.474 243.82C122.502 243.08 122.762 242.028 123.456 241.098C124.15 240.17 125.085 239.623 125.788 239.385C126.497 239.139 126.967 239.151 126.969 239.186Z" fill="#ED815D"/>
<path d="M133.277 233.114C133.33 233.197 132.229 233.903 131.148 235.071C130.056 236.229 129.425 237.375 129.339 237.327C129.263 237.298 129.78 236.048 130.91 234.848C132.03 233.641 133.243 233.039 133.277 233.114Z" fill="#ED815D"/>
<path d="M222.603 158.959C221.52 159.401 221.295 160.694 221.306 161.865C221.321 163.33 221.689 163.57 222.875 166.029C224.813 170.049 227.119 177.664 227.119 177.664C227.119 177.664 225.119 196.864 226.363 201.377C227.485 205.453 231.327 206.51 231.327 206.51L229.513 221.339L250.465 221.429C250.465 221.429 249.781 207.066 249.349 202.687C248.893 198.057 249.33 170.059 249.33 170.059L247.335 155.099L242.518 146.688C242.518 146.688 239.987 148.195 241.068 151.276C242.15 154.356 242.846 160.257 242.846 160.257L230.793 141.946C230.793 141.946 228.406 142.506 228.244 146.918C228.244 146.918 224.705 149.2 226.96 152.937C229.477 157.109 232.059 169.623 231.133 169.619L223.653 158.531L222.603 158.959Z" fill="#FFA37D"/>
<path d="M229.51 221.336C229.51 221.336 229.535 221.002 229.608 220.354C229.684 219.697 229.794 218.736 229.938 217.482C230.238 214.954 230.679 211.247 231.243 206.498L231.302 206.586C230.365 206.286 229.458 205.785 228.64 205.094C227.82 204.409 227.112 203.509 226.648 202.444C226.15 201.386 226.027 200.165 225.928 198.942C225.861 197.711 225.836 196.438 225.855 195.126C225.935 189.878 226.367 184.015 226.985 177.647L226.99 177.699C226.022 174.605 224.95 171.34 223.601 168.032C223.261 167.206 222.897 166.383 222.488 165.569C222.102 164.743 221.598 163.975 221.302 163.045C221.17 162.574 221.152 162.088 221.158 161.613C221.17 161.136 221.216 160.649 221.372 160.177C221.521 159.71 221.804 159.243 222.254 158.97C222.48 158.83 222.709 158.754 222.927 158.662L223.592 158.389L223.705 158.343L223.773 158.444C226.254 162.117 228.878 166.003 231.578 170L231.294 170.057C231.42 169.131 231.369 168.133 231.268 167.162C231.156 166.186 231.005 165.205 230.78 164.231C230.354 162.279 229.753 160.338 229.052 158.412C228.37 156.473 227.51 154.598 226.672 152.661C226.275 151.675 226.07 150.546 226.347 149.473C226.6 148.398 227.25 147.446 228.15 146.78L228.078 146.896C228.202 145.97 228.385 145.007 228.759 144.077C228.945 143.613 229.185 143.161 229.499 142.75C229.822 142.345 230.189 141.963 230.755 141.784L230.858 141.752L230.925 141.854C230.969 141.921 231.017 141.993 231.065 142.066C235.142 148.263 239.128 154.318 242.976 160.167L242.684 160.273C242.373 157.839 241.996 155.433 241.435 153.114C241.291 152.535 241.132 151.963 240.943 151.406C240.755 150.832 240.616 150.22 240.649 149.603C240.702 148.357 241.42 147.224 242.435 146.552L242.567 146.465L242.649 146.608C244.293 149.484 245.897 152.288 247.46 155.022L247.475 155.047L247.479 155.077C248.173 160.31 248.835 165.303 249.462 170.037L249.463 170.047L249.463 170.058C249.343 177.801 249.268 184.886 249.251 191.158C249.245 194.294 249.249 197.225 249.31 199.932C249.342 201.288 249.413 202.576 249.533 203.815C249.631 205.053 249.703 206.234 249.774 207.355C250.045 211.837 250.209 215.355 250.32 217.752C250.371 218.945 250.41 219.86 250.436 220.487C250.46 221.106 250.461 221.425 250.461 221.425C250.461 221.425 250.432 221.107 250.395 220.49C250.358 219.863 250.306 218.948 250.237 217.757C250.099 215.362 249.91 211.844 249.617 207.365C249.54 206.246 249.462 205.065 249.358 203.83C249.233 202.599 249.156 201.291 249.118 199.938C249.046 197.227 249.032 194.294 249.028 191.158C249.025 184.885 249.084 177.799 249.189 170.054L249.191 170.073C248.556 165.339 247.886 160.348 247.184 155.116L247.202 155.17C245.636 152.437 244.028 149.634 242.38 146.761L242.593 146.817C241.678 147.426 241 148.484 240.96 149.619C240.932 150.187 241.058 150.749 241.24 151.304C241.433 151.874 241.595 152.453 241.74 153.038C242.309 155.38 242.687 157.786 243.001 160.236L243.089 160.919L242.71 160.342C238.859 154.495 234.872 148.44 230.793 142.245C230.745 142.173 230.697 142.1 230.653 142.033L230.823 142.103C230.424 142.227 230.038 142.579 229.756 142.949C229.467 143.328 229.239 143.755 229.061 144.199C228.702 145.089 228.522 146.029 228.402 146.936L228.392 147.005L228.329 147.052C227.518 147.651 226.888 148.559 226.663 149.549C226.405 150.542 226.594 151.597 226.973 152.54C227.799 154.452 228.672 156.36 229.354 158.303C230.057 160.24 230.662 162.193 231.091 164.163C231.317 165.146 231.469 166.139 231.583 167.129C231.682 168.125 231.739 169.109 231.601 170.119L231.548 170.516L231.318 170.174C228.623 166.175 226.002 162.287 223.526 158.612L223.705 158.666C223.276 158.854 222.782 159.014 222.41 159.222C222.035 159.448 221.789 159.843 221.651 160.27C221.509 160.698 221.463 161.161 221.451 161.619C221.444 162.081 221.462 162.539 221.582 162.967C221.848 163.817 222.359 164.617 222.745 165.442C223.155 166.261 223.522 167.094 223.862 167.923C225.212 171.251 226.278 174.517 227.242 177.622L227.25 177.647L227.246 177.674C226.615 184.033 226.169 189.894 226.072 195.129C226.049 196.438 226.069 197.705 226.132 198.929C226.226 200.146 226.342 201.335 226.822 202.367C227.72 204.462 229.561 205.832 231.345 206.429L231.411 206.452L231.403 206.518C230.806 211.264 230.34 214.966 230.022 217.492C229.86 218.744 229.736 219.704 229.651 220.359C229.564 221.006 229.51 221.336 229.51 221.336Z" fill="#ED815D"/>
<path d="M238.986 171.255C238.963 171.258 238.885 170.889 238.763 170.219C238.652 169.548 238.451 168.583 238.186 167.398C237.637 165.033 236.688 161.798 235.128 158.434C233.582 155.063 231.793 152.207 230.444 150.185C229.77 149.172 229.21 148.362 228.82 147.804C228.431 147.244 228.225 146.928 228.243 146.915C228.261 146.901 228.502 147.192 228.922 147.729C229.344 148.264 229.934 149.056 230.634 150.055C232.036 152.049 233.866 154.903 235.424 158.298C236.995 161.687 237.917 164.96 238.412 167.348C238.648 168.546 238.816 169.521 238.888 170.199C238.972 170.877 239.008 171.252 238.986 171.255Z" fill="#ED815D"/>
<path d="M245.509 166.624C245.425 166.658 244.746 165.2 243.991 163.367C243.235 161.533 242.691 160.019 242.774 159.985C242.857 159.95 243.536 161.409 244.292 163.242C245.047 165.076 245.592 166.59 245.509 166.624Z" fill="#ED815D"/>
<path d="M227.87 215.214C224.125 247.661 219.262 282.199 213.681 318.079L256.333 318.17C264.388 300.432 259.519 284.929 257.427 262.844L250.501 212.695L227.87 215.214Z" fill="white"/>
<path d="M213.713 318.132C213.708 318.131 213.713 318.06 213.728 317.92C213.747 317.764 213.773 317.562 213.805 317.305C213.882 316.744 213.99 315.952 214.129 314.941C214.43 312.872 214.858 309.911 215.388 306.261C216.467 298.917 217.953 288.804 219.595 277.634C221.204 266.446 222.565 256.306 223.461 248.955C223.917 245.281 224.261 242.305 224.494 240.247C224.614 239.234 224.707 238.441 224.772 237.879C224.805 237.622 224.833 237.419 224.854 237.264C224.873 237.125 224.885 237.055 224.891 237.055C224.897 237.055 224.895 237.127 224.885 237.267C224.874 237.423 224.857 237.627 224.837 237.885C224.786 238.449 224.713 239.245 224.621 240.26C224.426 242.322 224.115 245.303 223.689 248.983C222.851 256.342 221.527 266.49 219.918 277.68C218.308 288.866 216.753 298.978 215.616 306.296C215.044 309.939 214.58 312.894 214.254 314.961C214.09 315.967 213.961 316.756 213.87 317.315C213.825 317.569 213.788 317.771 213.761 317.925C213.735 318.063 213.719 318.133 213.713 318.132Z" fill="#25393F"/>
<path d="M306.124 317.85H184.5L200.193 232.491C200.75 229.464 203.39 227.266 206.469 227.266H315.752C319.757 227.266 322.77 230.912 322.018 234.845L306.124 317.85Z" fill="#41626C"/>
<path d="M184.498 317.853H138.367L138.552 317.714C142.668 314.628 147.636 312.889 152.777 312.736L185.767 311.766L184.498 317.853Z" fill="#41626C"/>
<path d="M213.712 227.384C213.707 227.414 213.374 227.321 212.729 227.317C212.089 227.312 211.122 227.443 210.027 227.987C208.94 228.523 207.727 229.482 206.786 230.935C205.845 232.395 205.209 234.3 204.8 236.453C204.403 238.611 204.054 241.009 203.623 243.566C203.183 246.123 202.713 248.855 202.176 251.722C201.116 257.459 199.86 263.749 198.496 270.34C195.749 283.523 193.207 295.442 191.545 304.105C190.708 308.434 190.063 311.944 189.626 314.372C189.41 315.56 189.239 316.495 189.117 317.166C189.059 317.464 189.011 317.703 188.974 317.891C188.939 318.054 188.917 318.137 188.91 318.136C188.902 318.134 188.908 318.049 188.928 317.884C188.954 317.693 188.986 317.452 189.027 317.152C189.129 316.476 189.271 315.536 189.452 314.342C189.835 311.905 190.433 308.385 191.229 304.045C192.811 295.363 195.305 283.429 198.051 270.249C199.415 263.659 200.683 257.375 201.764 251.646C202.313 248.783 202.795 246.056 203.251 243.504C203.698 240.948 204.064 238.566 204.485 236.39C204.917 234.221 205.588 232.281 206.573 230.798C207.563 229.314 208.824 228.353 209.95 227.827C211.085 227.295 212.081 227.19 212.731 227.225C213.386 227.26 213.712 227.384 213.712 227.384Z" fill="#25393F"/>
<path d="M265.074 270.638C265.074 273.885 262.441 276.518 259.194 276.518C255.946 276.518 253.312 273.885 253.312 270.638C253.312 267.391 255.946 264.758 259.194 264.758C262.441 264.758 265.074 267.391 265.074 270.638Z" fill="#F5F5F5"/>
<path d="M336.05 317.951C336.05 318.041 272.005 318.114 193.021 318.114C114.008 318.114 49.9766 318.041 49.9766 317.951C49.9766 317.861 114.008 317.789 193.021 317.789C272.005 317.789 336.05 317.861 336.05 317.951Z" fill="#25393F"/>
<path d="M177.543 112.476L176.201 102.679L171.222 103.962L166.672 96.4609L169.675 106.698L174.725 105.378L177.543 112.476Z" fill="#4378CC"/>
<path d="M169.868 114.078L165.207 109.281L163.01 111.977L157.523 109.718L163.266 114.089L165.487 111.344L169.868 114.078Z" fill="#4378CC"/>
<path d="M229.812 116.56L234.048 108.853L237.774 111.505L243.942 106.727L238.187 114.269L234.414 111.564L229.812 116.56Z" fill="#4378CC"/>
<path d="M240.195 123.134L244.575 121.266L245.277 123.64L249.501 123.665L244.528 124.956L243.825 122.543L240.195 123.134Z" fill="#4378CC"/>
<mask id="mask1_5441_97835" style="mask-type:luminance" maskUnits="userSpaceOnUse" x="185" y="84" width="38" height="14">
<path d="M204.673 85.2778C167.551 80.0642 194.855 97.6238 196.314 88.239C197.774 78.8542 208.745 89.9076 208.745 89.9076C208.745 89.9076 213.608 88.2517 210.689 88.2517C207.769 88.2517 208.923 94.5547 208.923 95.1803C208.923 95.806 195.342 98.8675 203.267 96.5732C211.192 94.279 241.794 90.4914 204.673 85.2778Z" fill="white"/>
</mask>
<g mask="url(#mask1_5441_97835)">
<path d="M207.552 62.7697C207.552 62.7697 207.834 62.5901 208.394 62.2498C208.962 61.9251 209.817 61.4446 211.002 60.9415C213.348 59.9417 217.089 58.713 222.072 58.9013C222.69 58.9313 223.329 58.9689 223.978 59.0571C224.63 59.1278 225.3 59.2329 225.968 59.4199C226.635 59.6058 227.309 59.8529 227.941 60.2233C228.565 60.5962 229.168 61.0904 229.55 61.7693C229.952 62.4337 230.077 63.2671 229.937 64.061C229.783 64.86 229.333 65.5857 228.779 66.2039C227.635 67.4295 226.072 68.2898 224.383 68.8654C221.032 70.0992 217.162 70.7618 213.076 70.4834C209.002 70.2175 204.696 69.0525 200.753 66.7019L200.664 66.6487L200.718 66.5599C202.223 64.0992 204.515 62.0439 207.214 60.5937C209.916 59.139 213.02 58.2444 216.264 58.0022C219.508 57.7582 222.867 58.0823 226.21 58.8068C227.883 59.1659 229.56 59.6101 231.235 60.1282C232.905 60.645 234.61 61.188 236.211 62.0333C237.805 62.8667 239.294 64.0704 240.22 65.7021C240.676 66.5123 241.009 67.4139 241.092 68.3611C241.191 69.3059 241.007 70.2744 240.632 71.1509C239.849 72.9259 238.25 74.1853 236.565 75.08C234.862 75.9891 232.982 76.5578 231.085 77.0014C223.499 78.8627 215.211 79.1661 206.974 77.6152C206.457 77.5301 205.947 77.4062 205.432 77.2992C204.917 77.1947 204.404 77.0733 203.893 76.9401C202.87 76.6955 201.835 76.4177 200.845 76.006C199.854 75.6037 198.891 75.0838 198.06 74.373C197.236 73.6685 196.559 72.7038 196.378 71.5914C196.171 70.4884 196.466 69.3215 197.077 68.3956C197.679 67.4552 198.517 66.7038 199.412 66.0612C200.313 65.4187 201.301 64.9107 202.299 64.4452C202.791 64.1956 203.3 63.9797 203.811 63.7657C204.317 63.5424 204.831 63.3334 205.355 63.1488C209.515 61.5897 213.999 60.7194 218.555 60.6506C220.833 60.6124 223.127 60.7676 225.403 61.1274C225.973 61.2118 226.542 61.3082 227.106 61.4358C227.672 61.5522 228.239 61.6648 228.798 61.8212C229.922 62.0952 231.048 62.4225 232.121 62.8954C233.195 63.3597 234.234 63.9503 235.126 64.7399C236.015 65.5213 236.742 66.553 237.02 67.7386L237.111 68.1828L237.148 68.6358C237.189 68.9374 237.14 69.2408 237.128 69.5436C237.036 70.1405 236.886 70.7374 236.604 71.2748C236.084 72.3734 235.247 73.275 234.34 74.0521C233.426 74.831 232.404 75.4698 231.339 76.0204C230.807 76.3 230.256 76.5409 229.707 76.7737C229.16 77.0158 228.603 77.2385 228.044 77.4537C225.81 78.3253 223.501 79.0366 221.142 79.5747C216.427 80.6671 211.514 81.0825 206.604 80.7741C204.15 80.6189 201.657 80.1065 199.454 78.894C198.367 78.2809 197.348 77.4688 196.659 76.3908C195.978 75.3128 195.66 74.0133 195.757 72.7376C195.842 71.6896 196.226 70.6867 196.774 69.8095C197.321 68.9292 198.017 68.1541 198.784 67.4758C200.321 66.1157 202.132 65.1096 203.998 64.3388C207.722 62.754 211.688 61.8174 215.669 61.5259C217.66 61.3789 219.656 61.3926 221.63 61.5672C222.618 61.6535 223.6 61.778 224.573 61.9488C225.545 62.1071 226.522 62.3098 227.456 62.6433C228.389 62.973 229.304 63.3835 230.112 63.9697C230.918 64.5459 231.643 65.2967 232.025 66.2402C232.431 67.1686 232.444 68.2479 232.121 69.1951C231.802 70.148 231.196 70.9745 230.463 71.6314C228.964 72.9572 227.021 73.5115 225.178 73.9614C223.317 74.4031 221.467 74.8423 219.615 75.2502C215.915 76.0673 212.209 76.7561 208.494 77.0502C204.783 77.3611 201.058 77.2254 197.473 76.519C193.894 75.8058 190.453 74.4744 187.497 72.451L187.336 72.3409L187.482 72.212C192.628 67.6836 199.039 64.9726 205.48 64.0454C211.933 63.1107 218.473 63.9522 224.145 66.4554C224.84 66.8039 225.512 67.2093 226.098 67.7267C226.686 68.2341 227.189 68.8717 227.451 69.6225C227.7 70.377 227.66 71.2141 227.341 71.9349C227.015 72.6531 226.469 73.2318 225.865 73.6911C224.642 74.6195 223.204 75.1132 221.811 75.5824C220.404 76.0335 218.973 76.3714 217.536 76.5985C214.66 77.0383 211.77 77.0433 208.988 76.6016C208.297 76.4727 207.581 76.2756 207.013 75.8033C206.436 75.3415 206.153 74.552 206.291 73.8306C206.447 73.1117 206.889 72.523 207.387 72.0444C207.887 71.5588 208.468 71.1772 209.076 70.8625C214.032 68.6314 219.37 67.9313 224.321 68.4725C225.558 68.6108 226.788 68.8404 227.928 69.3027C229.064 69.7557 230.12 70.4658 230.832 71.4506C231.547 72.4172 231.965 73.6254 231.829 74.8166C231.697 76.0204 230.94 77.0283 230.077 77.7547C229.208 78.5017 228.222 79.0398 227.268 79.5872C226.295 80.104 225.317 80.5832 224.318 80.9699C222.327 81.7645 220.305 82.3082 218.311 82.6298C214.321 83.2736 210.463 83.0095 207.055 82.1399L206.939 82.1105L207.01 82.0141C208.666 79.7374 210.952 78.1933 213.27 77.3411C215.598 76.489 217.987 76.2907 220.104 76.6679C221.163 76.8368 222.169 77.1816 222.992 77.7516C223.399 78.0393 223.754 78.3897 224.014 78.7945C224.263 79.2031 224.433 79.6548 224.475 80.1128C224.577 81.035 224.239 81.8977 223.787 82.576C223.337 83.2673 222.755 83.8035 222.173 84.2464C220.993 85.1367 219.731 85.5128 218.713 85.9276C217.679 86.3199 216.825 86.6871 216.178 87.055C215.533 87.4266 215.089 87.7789 214.817 88.0398C214.675 88.163 214.586 88.2744 214.517 88.3395C214.451 88.4077 214.416 88.4402 214.416 88.4402C214.416 88.4402 214.534 88.2894 214.803 88.0235C215.07 87.757 215.512 87.3966 216.156 87.0175C216.803 86.6414 217.657 86.2667 218.69 85.8669C219.707 85.4458 220.962 85.0629 222.122 84.1782C222.695 83.7378 223.268 83.2047 223.707 82.5234C224.149 81.8546 224.472 81.0131 224.37 80.1246C224.328 79.6829 224.162 79.2469 223.921 78.8539C223.668 78.4635 223.323 78.1251 222.926 77.8454C222.122 77.2923 221.131 76.9545 220.083 76.7912C217.987 76.4233 215.622 76.6266 213.32 77.4756C211.027 78.3253 208.77 79.8581 207.141 82.1086L207.096 81.9828C210.484 82.8394 214.318 83.094 218.282 82.4471C220.261 82.1242 222.269 81.5799 224.244 80.7872C225.237 80.4018 226.206 79.9244 227.171 79.4102C228.117 78.8658 229.098 78.3265 229.942 77.597C230.784 76.8856 231.496 75.924 231.617 74.7922C231.745 73.6679 231.347 72.5092 230.657 71.5795C229.972 70.6341 228.956 69.9515 227.846 69.5092C226.732 69.0594 225.522 68.8341 224.296 68.699C219.388 68.1659 214.077 68.8748 209.187 71.0821C208.6 71.3868 208.036 71.7584 207.56 72.2233C207.082 72.6813 206.674 73.24 206.538 73.8781C206.419 74.5107 206.662 75.197 207.176 75.6093C207.683 76.0329 208.36 76.2275 209.033 76.3507C211.778 76.783 214.65 76.7768 217.495 76.3382C218.918 76.1111 220.335 75.7757 221.729 75.3278C223.111 74.861 224.529 74.3693 225.7 73.4746C226.281 73.0335 226.791 72.4842 227.09 71.8247C227.381 71.1634 227.418 70.4001 227.19 69.71C226.95 69.0225 226.48 68.4218 225.915 67.9351C225.354 67.4396 224.7 67.0454 224.021 66.705C218.421 64.24 211.918 63.401 205.522 64.3344C199.133 65.2585 192.777 67.952 187.684 72.4398L187.669 72.2008C190.587 74.1953 193.987 75.5111 197.533 76.2162C201.087 76.9144 204.78 77.0483 208.469 76.738C212.163 76.4446 215.854 75.7576 219.547 74.9411C221.394 74.5332 223.245 74.0934 225.103 73.6523C226.937 73.2062 228.828 72.6537 230.249 71.393C230.948 70.7674 231.521 69.981 231.817 69.0932C232.116 68.2122 232.103 67.2218 231.728 66.3641C231.377 65.4932 230.698 64.7843 229.925 64.2312C229.151 63.67 228.262 63.2696 227.351 62.948C226.438 62.6227 225.486 62.425 224.518 62.2667C223.554 62.0984 222.581 61.9751 221.602 61.8894C219.645 61.7167 217.667 61.7036 215.694 61.8494C211.746 62.1384 207.815 63.0675 204.125 64.6385C202.274 65.4031 200.505 66.3891 199.001 67.7192C197.522 69.0306 196.248 70.763 196.082 72.7657C195.991 73.9695 196.291 75.197 196.933 76.2149C197.585 77.2348 198.559 78.0156 199.613 78.6099C201.75 79.788 204.205 80.298 206.625 80.45C211.502 80.7566 216.384 80.3443 221.069 79.2594C223.414 78.7251 225.708 78.0187 227.927 77.1534C228.484 76.9395 229.036 76.718 229.58 76.4777C230.128 76.2456 230.669 76.0091 231.191 75.7338C232.239 75.1933 233.243 74.5657 234.133 73.8068C235.016 73.0504 235.824 72.177 236.316 71.1353C236.584 70.6254 236.722 70.0648 236.811 69.5055C236.821 69.2214 236.869 68.938 236.829 68.6546L236.795 68.2298L236.709 67.8131C236.45 66.7032 235.769 65.7303 234.914 64.9776C234.058 64.2193 233.047 63.6412 231.995 63.1864C230.943 62.7221 229.838 62.4012 228.72 62.1284C228.167 61.9726 227.604 61.8606 227.042 61.7449C226.484 61.6179 225.919 61.5228 225.354 61.4389C223.096 61.0811 220.82 60.9259 218.561 60.9634C214.04 61.0298 209.59 61.8919 205.463 63.4366C204.942 63.6193 204.433 63.8258 203.93 64.0473C203.423 64.2594 202.918 64.4733 202.43 64.7211C201.436 65.1841 200.468 65.6821 199.588 66.3096C198.713 66.9353 197.903 67.666 197.331 68.5576C196.752 69.4385 196.484 70.514 196.673 71.5395C196.841 72.5699 197.467 73.4708 198.256 74.1472C199.051 74.8273 199.987 75.3365 200.958 75.7307C201.929 76.1355 202.942 76.4089 203.965 76.6535C204.473 76.7862 204.982 76.9075 205.495 77.012C206.007 77.1184 206.515 77.2423 207.028 77.3274C215.221 78.8746 223.47 78.5793 231.021 76.7336C232.914 76.2919 234.762 75.7326 236.439 74.8404C238.096 73.9639 239.642 72.7351 240.388 71.0439C240.747 70.2074 240.923 69.2859 240.829 68.3855C240.751 67.4821 240.434 66.6149 239.995 65.8316C239.1 64.2525 237.658 63.0806 236.091 62.2592C234.519 61.4264 232.828 60.884 231.16 60.3666C229.492 59.8491 227.823 59.4043 226.159 59.0452C222.834 58.3207 219.499 57.9953 216.281 58.2331C213.067 58.469 209.993 59.3518 207.319 60.787C204.646 62.2172 202.382 64.2437 200.893 66.6675L200.859 66.5255C204.767 68.8629 209.042 70.0285 213.088 70.3C217.148 70.5847 220.994 69.934 224.328 68.7146C226.008 68.1459 227.545 67.3007 228.67 66.1038C229.213 65.5007 229.648 64.7987 229.798 64.0341C229.932 63.2752 229.816 62.4756 229.432 61.8375C229.068 61.1849 228.485 60.7025 227.875 60.3353C227.257 59.9711 226.594 59.7253 225.935 59.5394C225.275 59.3524 224.614 59.2466 223.964 59.1734C223.318 59.0833 222.683 59.0439 222.067 59.012C217.106 58.8074 213.372 60.0137 211.025 60.9941C209.838 61.4877 208.98 61.9588 208.408 62.2748C207.844 62.607 207.552 62.7697 207.552 62.7697Z" fill="#25393F"/>
</g>
</g>
</g>
<defs>
<clipPath id="clip0_5441_97835">
<rect width="320.334" height="320.334" fill="white" transform="translate(48.5469 25.5234)"/>
</clipPath>
</defs>
</svg>
